PathFileType	4	(X/Y/Z)	OpenSim_Sub08_EMGBaseline_Accel.trc
DataRate	CameraRate	NumFrames	NumMarkers	Units	OrigDataRate	OrigDataStartFrame	OrigNumFrames
100	100	27	8	m	100	1664	6654
Frame#	Time	torso_imu_offset_imu	pelvis_imu_offset_imu	tibia_r_imu_offset_imu	femur_r_imu_offset_imu	tibia_l_imu_offset_imu	femur_l_imu_offset_imu	toes_r_imu_offset_imu	toes_l_imu_offset_imu
				X1	Y1	Z1	X2	Y2	Z2	X3	Y3	Z3	X4	Y4	Z4	X5	Y5	Z5	X6	Y6	Z6	X7	Y7	Z7	X8		Y8	Z8	

1664	16.63000000	9.01409848	0.35264843	6.48556176	9.59575119	-0.20461214	2.77004969	11.79000422	2.92564609	-0.20597938	8.63373950	-3.95113563	1.65389252	9.82833613	-1.81221016	-0.65626104	9.33849608	1.57549102	-1.94761851	12.17288193	0.54372311	6.81154255	5.88787135	0.79756848	10.58505875
1665	16.64000000	9.01248299	0.43072581	6.52403752	9.61920744	-0.40185530	2.62344660	10.70718421	1.24121175	-0.03103863	8.52503101	-4.48089874	1.70583967	9.85505085	-2.11003534	-0.35061905	9.35835589	1.27837236	-2.04840718	11.71556817	1.22212535	6.07142551	5.88036782	0.96557661	10.57822424
1666	16.65000000	9.04331196	0.46589555	6.53520702	9.72469786	-0.57442205	2.65518019	9.95848399	-0.40602990	-0.03710386	8.31066547	-5.16537623	1.72134610	9.97193753	-1.90047596	-0.37064382	9.46543494	1.32512372	-2.40209806	11.90419355	2.85904871	5.63691659	5.80384241	0.63405786	10.72851267
1667	16.66000000	9.18353558	0.47851101	6.60521781	9.81472853	-0.68225493	2.72165657	9.81858780	-1.36361510	-0.04222176	8.32959698	-5.88371441	1.86154608	10.06856276	-1.71221817	-0.65679571	9.52888100	1.51031665	-2.45704459	12.06936343	4.06818125	4.64810964	5.33505798	0.71208799	10.98789280
1668	16.67000000	9.24627857	0.47042525	6.70264575	9.88137328	-0.72824274	2.68515959	9.65749686	-1.96027533	0.67031659	8.62650267	-6.47002693	2.22975513	9.92810023	-1.63277326	-0.57491782	9.43741770	1.22619698	-2.21773836	12.06160665	4.09032570	3.02743317	5.53093276	1.42629450	10.97566522
1669	16.68000000	9.28168808	0.49052815	6.74659059	9.98170941	-0.64877160	2.77626242	9.11684243	-2.28072022	0.91987616	8.91834044	-6.71371573	2.50597927	9.79420458	-1.07071085	-1.01709818	9.64015014	0.78939178	-2.13863230	11.83653927	4.76654627	1.77396133	5.64492947	1.04628995	11.00684600
1670	16.69000000	9.36853936	0.52106927	6.83098522	10.05578114	-0.54229777	2.94333620	8.39615902	-1.31905909	0.11583640	9.16502265	-6.52571480	2.85005605	10.44771756	-0.90958739	-0.77842116	9.70725633	0.57825032	-2.29883288	12.29233527	5.90791087	1.39802220	5.84375793	0.49072360	10.67124525
1671	16.70000000	9.41078601	0.48697387	6.91846629	10.00517511	-0.51822425	3.01684782	7.97714434	0.86313473	-0.04823797	9.37981134	-6.23997252	3.09240633	10.40934631	-0.99311120	-0.18217482	9.45899891	0.70987777	-2.47864001	13.06157838	5.81557197	1.27350157	5.67498590	0.96561037	10.86619021
1672	16.71000000	9.44172688	0.42877792	6.94273065	9.98096844	-0.51708593	2.94988467	7.83472411	2.84346752	-0.15155398	9.59566806	-6.19914181	3.20605913	9.89894827	-0.74490681	-0.20804611	9.44643599	0.91841872	-2.66292275	13.10599459	4.60247358	0.78014069	5.61141859	0.80882786	10.96560101
1673	16.72000000	9.40861465	0.38465204	6.95308990	9.97517951	-0.46690648	2.87443493	7.73493156	4.04041311	-0.64916660	9.69816512	-6.35161884	3.14903097	10.13553689	-0.84825989	-0.74926186	9.66400376	1.19060673	-2.77322799	12.53790016	2.98638252	0.21351032	5.82982893	0.56264923	10.71976230
1674	16.73000000	9.30945463	0.38322114	6.91063317	9.85688003	-0.47944451	2.77109712	7.61778898	4.09201442	-0.83505157	9.39648443	-6.35298646	2.83681542	10.47488717	-1.58622370	-0.92738149	9.75608210	1.32852146	-2.67635378	12.50230669	1.65232157	-0.05395213	6.07163505	0.95199405	10.68590349
1675	16.74000000	9.32630683	0.36172982	6.86781929	9.70663951	-0.62694943	2.57435266	7.55997966	2.99431747	-0.73832269	8.85406400	-6.07952404	2.17613679	10.53869938	-2.16260153	-1.01035535	9.79237736	1.39470842	-2.57903688	12.43092470	0.58717475	0.86287428	5.90175580	1.29576875	10.87690616
1676	16.75000000	9.23770293	0.30561199	6.79161185	9.60851439	-0.82954169	2.38519691	7.74951831	1.56186388	-0.74168939	8.19757855	-5.49945214	1.30826281	10.48793489	-2.18052272	-1.01105109	9.88728073	1.33893430	-2.53674630	12.05625674	-0.25112740	-0.60160971	5.34203870	1.27046114	11.14414213
1677	16.76000000	9.15433654	0.32270564	6.72927108	9.57871081	-1.06730742	2.27171034	8.25425197	0.26210123	-1.06855741	7.66600085	-4.79824069	0.68030124	10.57257564	-1.89531404	-0.84978024	9.96329572	1.10058050	-2.47871295	2.10637666	-0.80458069	5.99844709	5.83893943	1.10864569	10.70123854
1678	16.77000000	9.31673410	0.33767533	6.71639316	9.66956351	-1.17171880	2.30460703	9.26761791	-0.78607475	-1.03328104	7.92387169	-4.36355895	0.64377337	10.54487004	-1.64869202	-0.74532717	9.84437062	1.12275243	-2.47791820	-1.92636537	-6.03066939	13.86718771	5.95047378	1.18492382	10.67842208
1679	16.78000000	9.72030877	0.34846248	6.79412943	9.91702458	-0.97629025	2.51068246	11.55196169	-1.25664218	1.36210672	9.34725190	-4.37294748	1.05343290	10.73470290	-1.33849743	-0.64338245	9.85553788	1.47293368	-2.45903255	0.36059564	-12.03971812	7.85654813	5.76173217	1.10689398	10.80510806
1680	16.79000000	10.19477612	0.30001624	6.94489695	10.22413384	-0.45904262	2.76543752	14.56265491	-3.44980748	4.27419597	11.02000872	-4.37631196	1.88562977	10.98218354	-1.13359659	-0.42552420	9.95722081	1.82343042	-2.13912625	-5.13678406	-9.58887808	6.89080865	5.21026730	1.38626711	11.13518680
1681	16.80000000	10.40263547	0.30220216	7.05796893	10.58575075	0.19249097	3.12365576	14.75207594	-7.97013351	3.79760163	11.59537690	-3.72840988	3.32591068	11.07539062	-1.18029913	-0.10948854	10.20594703	1.95329633	-1.75968826	5.97534262	-6.19703781	7.71348249	5.26877083	1.50759422	11.01164306
1682	16.81000000	10.09181302	0.31960109	7.04668400	10.87283783	0.76756944	3.51665886	11.33638766	-9.46592465	2.33344467	11.41509976	-2.79598589	4.82959839	10.99700910	-1.33779314	0.15966487	10.36723690	2.02570221	-1.70741380	8.87177152	-7.07931293	9.17559796	5.62233586	1.40792258	10.72342276
1683	16.82000000	9.72438259	0.31496900	6.95492298	10.99547388	1.17553056	3.69523809	8.38541691	-8.00625209	1.80674972	11.62241563	-2.11727597	5.38402158	11.00023766	-1.43227547	0.42335033	10.21253336	2.06407279	-1.81389188	4.33059092	-4.62522295	9.02610054	5.38579849	1.21076165	10.79740290
1684	16.83000000	10.01913083	0.35301612	6.86797725	10.93058093	1.35514265	3.81601682	9.03778749	-7.24688589	1.39235353	12.54619086	-1.70561118	4.78486616	11.16645025	-1.20831297	0.84789868	9.95334767	2.19067560	-1.79130686	4.93537420	3.35277988	12.36987668	5.14923406	0.99267131	10.76329006
1685	16.84000000	10.64828402	0.35412751	6.77691560	10.72614380	1.47059760	4.18268682	12.13160502	-5.54348927	2.69505256	13.00795675	-1.96948946	3.83632602	11.15306504	-0.69400869	1.34628859	9.98422830	2.23307067	-1.53792606	6.73370040	2.49141279	12.08142234	5.00942656	1.31445565	10.79278903
1686	16.85000000	10.74427206	0.32235981	6.70658316	10.60069104	1.37325599	4.09096462	13.68921883	-1.90569984	3.96308560	12.00686722	-2.82014115	2.91967656	11.20587577	0.07655720	1.55075800	10.22032799	1.98264939	-1.22199992	6.75489324	-0.69572172	11.09025178	5.35454415	1.65462545	10.69656050
1687	16.86000000	10.37891170	0.29158211	6.50865676	10.60187485	0.96703689	3.68207046	12.31628023	1.76784196	3.19138152	10.27941249	-3.27981658	1.83952561	11.62061834	0.70986831	1.60810308	10.28155302	1.86800161	-1.01979193	6.74379810	-2.12078428	10.95346665	5.72065438	1.75339123	10.58538643
1688	16.87000000	10.24662306	0.26714058	6.35185436	10.38098911	0.25598162	3.73141778	10.01848493	3.94123018	1.50587312	9.30332529	-2.86425346	0.77183971	12.13095621	0.62544784	1.70152980	10.52601836	1.66413355	-0.84008206	6.68676586	-4.51281796	9.53141604	5.73223811	1.92640994	10.70125378
1689	16.88000000	10.29281788	0.23820394	6.28360509	10.13647927	-0.68592769	3.80307170	8.50611092	3.95763797	0.43719798	9.03791293	-1.79380486	0.20318116	12.48833879	-0.42960599	1.89627512	10.61317450	1.49013587	-0.67694300	6.68668118	-4.27602182	8.75252139	5.69654351	1.99352087	10.91501057
1690	16.89000000	10.16526609	0.15556754	6.12057172	9.75960591	-1.59449821	4.04623838	8.32972587	2.23977116	-0.35813788	8.64541824	-0.85824488	0.12467635	12.76429625	-1.78045040	1.34467516	10.33963789	1.23191538	-0.48424289	6.15969352	-3.63753218	8.68447872	6.35660072	1.43822809	10.38388292
